# xmcd
# 
# Track frame offsets:
#     150
#     27013
#     57718
#     81108
#     103365
#     131283
#     152845
#     170720
#     188703
#     210928
#     233490
# 
# Disc length: 3376
# 
# Revision: 2
# Processed by: cddbd v1.5.2PL0 Copyright (c) Steve Scherf et al.
# Submitted via: fre:ac v1.0.17
# 
DISCID=8b0d2e0b
DTITLE=KCO - O-Crazy Luv (Vol. 1)
DYEAR=2008
DGENRE=J-Pop
TTITLE0=Selfish
TTITLE1=春の雪 (Full Length)
TTITLE2=Slide
TTITLE3=Secret Comes
TTITLE4=O-Crazy Luv
TTITLE5=Hello Uk
TTITLE6=Sorry Lonely
TTITLE7=Self Indication
TTITLE8=ネムラセテ
TTITLE9=Last Dance
TTITLE10=Mobile Emotion
EXTD=
EXTT0=
EXTT1=
EXTT2=
EXTT3=
EXTT4=
EXTT5=
EXTT6=
EXTT7=
EXTT8=
EXTT9=
EXTT10=
PLAYORDER=
